<!-- icon666.com - MILLIONS OF FREE VECTOR ICONS --><svg version="1.1" id="Layer_1" xmlns="http://www.w3.org/2000/svg" xmlns:xlink="http://www.w3.org/1999/xlink" x="0px" y="0px" viewBox="0 0 512 512" style="enable-background:new 0 0 512 512;" xml:space="preserve"><path style="fill:#FBD33B;" d="M371.767,144.629c-26.346,0-49.344,14.319-61.726,35.612c18.004,16.411,29.324,40.077,29.324,66.347 c0,4.606-0.354,9.245-1.052,13.787c-0.24,1.562,0.211,3.145,1.238,4.344c1.028,1.2,2.522,1.888,4.1,1.888l12.779-0.001 c15.599,0,29.694,6.549,39.727,17.038c27.438-10,47.038-36.384,47.038-67.365C443.197,176.708,411.216,144.629,371.767,144.629z"></path><path style="opacity:0.1;enable-background:new ;" d="M334.043,216.119c0.074-33.676,23.312-61.88,54.574-69.466 c-5.405-1.312-11.044-2.024-16.85-2.024c-26.346,0-49.344,14.319-61.726,35.612C320.716,189.972,329.035,202.255,334.043,216.119z"></path><g><path style="fill:#91CFE5;" d="M48.882,370.543c0-26.198,15.326-48.795,37.469-59.288v-93.841 c-15.03,10.229-25.813,26.48-28.533,45.473c-0.333,2.324-2.109,4.157-4.418,4.559c-26.401,4.617-45.564,27.51-45.564,54.434 c0,25.682,17.546,47.324,41.242,53.503C48.962,373.783,48.882,372.173,48.882,370.543z"></path><path style="fill:#91CFE5;" d="M356.431,266.606l-12.779,0.001c-1.579,0-3.072-0.688-4.1-1.888 c-1.027-1.198-1.479-2.781-1.238-4.344c0.698-4.543,1.052-9.182,1.052-13.787c0-49.433-40.085-89.649-89.358-89.649 c-36.936,0-69.567,22.286-83.131,56.778c-0.592,1.508-1.815,2.66-3.359,3.161c-0.537,0.176-1.097,0.264-1.665,0.264 c-1.031,0-2.035-0.293-2.905-0.847c-5.265-3.362-10.939-5.937-16.857-7.681v102.641c22.142,10.493,37.468,33.091,37.468,59.288 c0,2.232-0.113,4.437-0.33,6.611H356.43c30.377,0,55.092-24.794,55.092-55.274C411.523,291.402,386.81,266.606,356.431,266.606z"></path></g><path style="opacity:0.1;enable-background:new ;" d="M60.952,290.23c2.309-0.403,4.085-2.236,4.418-4.559 c2.239-15.634,9.946-29.408,20.983-39.498v-28.758c-15.03,10.229-25.813,26.48-28.533,45.473c-0.333,2.324-2.109,4.157-4.418,4.559 c-26.402,4.616-45.565,27.509-45.565,54.433c0,10.37,2.871,20.074,7.842,28.375c-0.185-1.841-0.292-3.704-0.292-5.592 C15.388,317.74,34.551,294.848,60.952,290.23z"></path><path style="opacity:0.1;enable-background:new ;" d="M250.009,156.939c-36.936,0-69.567,22.286-83.131,56.778 c-0.592,1.508-1.815,2.66-3.359,3.161c-0.537,0.176-1.097,0.264-1.665,0.264c-1.031,0-2.035-0.293-2.905-0.847 c-5.265-3.362-10.939-5.937-16.857-7.681v21.039c8.648,1.474,16.939,4.656,24.409,9.426c0.869,0.555,1.874,0.847,2.905,0.847 c0.566,0,1.127-0.089,1.665-0.264c1.544-0.501,2.767-1.653,3.359-3.161c13.564-34.492,46.195-56.778,83.131-56.778 c35.194,0,65.676,20.53,80.229,50.271C330.007,188.468,293.626,156.939,250.009,156.939z"></path><path style="fill:#D6D5D6;" d="M142.093,311.256V103.869c0-15.439-12.478-27.958-27.871-27.958s-27.871,12.518-27.871,27.958 v207.387c-22.143,10.493-37.469,33.09-37.469,59.288c0,36.2,29.254,65.546,65.34,65.546s65.34-29.347,65.34-65.546 C179.56,344.347,164.235,321.749,142.093,311.256z"></path><ellipse style="fill:#EF4545;" cx="114.218" cy="370.542" rx="30.438" ry="30.532"></ellipse><path style="opacity:0.1;enable-background:new ;" d="M70.269,370.543c0-26.195,15.328-48.781,37.469-59.272v-116.92v-90.483 c0-11.639,7.093-21.615,17.176-25.823c-3.292-1.374-6.904-2.136-10.693-2.136c-15.392,0-27.871,12.518-27.871,27.958v207.403 c-22.141,10.491-37.469,33.076-37.469,59.272c0,36.2,29.254,65.546,65.34,65.546c3.644,0,7.212-0.313,10.693-0.888 C93.919,430.081,70.269,403.089,70.269,370.543z"></path><path d="M371.767,116.79c4.328,0,7.837-3.508,7.837-7.837V83.468c0-4.329-3.509-7.837-7.837-7.837s-7.837,3.508-7.837,7.837v25.485 C363.931,113.281,367.439,116.79,371.767,116.79z"></path><path d="M447.423,148.225c2.009,0,4.02-0.768,5.549-2.304l17.963-18.019c3.055-3.066,3.048-8.028-0.018-11.082 c-3.066-3.055-8.028-3.048-11.083,0.018l-17.963,18.019c-3.055,3.066-3.048,8.028,0.018,11.083 C443.42,147.463,445.421,148.225,447.423,148.225z"></path><path d="M504.163,208.443h-25.403c-4.328,0-7.837,3.508-7.837,7.837c0,4.329,3.509,7.837,7.837,7.837h25.403 c4.328,0,7.837-3.508,7.837-7.837C512,211.952,508.491,208.443,504.163,208.443z"></path><path d="M452.974,286.64c-3.055-3.066-8.017-3.072-11.083-0.018c-3.066,3.055-3.073,8.018-0.018,11.082l17.962,18.019 c1.531,1.536,3.541,2.304,5.551,2.304c2.001,0,4.003-0.763,5.533-2.287c3.066-3.055,3.073-8.017,0.018-11.082L452.974,286.64z"></path><path d="M290.561,145.921c1.531,1.536,3.541,2.304,5.551,2.304c2.001,0,4.003-0.762,5.533-2.286 c3.066-3.055,3.073-8.018,0.018-11.083l-17.961-18.019c-3.055-3.066-8.018-3.072-11.083-0.018 c-3.066,3.055-3.073,8.018-0.018,11.082L290.561,145.921z"></path><path d="M125.89,427.066c-3.813,0.788-7.74,1.188-11.669,1.188c-31.707,0-57.503-25.888-57.503-57.71 c0-22.218,12.949-42.71,32.988-52.206c2.737-1.296,4.482-4.053,4.482-7.081v-63.704h14.437c4.328,0,7.837-3.508,7.837-7.837 c0-4.329-3.509-7.837-7.837-7.837H94.188v-17.522h14.437c4.328,0,7.837-3.508,7.837-7.837c0-4.329-3.509-7.837-7.837-7.837H94.188 v-17.521h14.437c4.328,0,7.837-3.508,7.837-7.837c0-4.329-3.509-7.837-7.837-7.837H94.188v-17.523h14.437 c4.328,0,7.837-3.508,7.837-7.837c0-4.329-3.509-7.837-7.837-7.837H94.188v-28.424c0-11.095,8.987-20.122,20.034-20.122 s20.034,9.027,20.034,20.122v35.108c0,4.329,3.509,7.837,7.837,7.837c4.328,0,7.837-3.508,7.837-7.837v-35.108 c0-19.738-16.018-35.795-35.707-35.795S78.515,84.13,78.515,103.869v109.583c-14.553,11.161-25.002,27.584-28.186,46.601 C21.059,266.002,0,291.728,0,321.88c0,27.384,17.485,50.741,41.843,59.456c5.221,35.365,35.684,62.59,72.378,62.59 c4.994,0,9.987-0.509,14.842-1.512c4.239-0.877,6.964-5.023,6.089-9.261C134.276,428.915,130.122,426.195,125.89,427.066z M41.345,364.062c-15.228-7.884-25.671-23.828-25.671-42.181c0-23.108,16.434-42.754,39.074-46.713 c5.66-0.987,10.011-5.474,10.828-11.169c1.572-10.978,6.206-20.91,12.939-28.997v71.49C57.475,318.322,43.496,340.04,41.345,364.062 z"></path><path d="M122.059,332.987v-62.974c0-4.329-3.509-7.837-7.837-7.837c-4.328,0-7.837,3.508-7.837,7.837v62.974 c-17.358,3.635-30.438,19.091-30.438,37.557c0,21.158,17.17,38.372,38.274,38.372c21.105,0,38.275-17.214,38.275-38.372 C152.496,352.078,139.417,336.621,122.059,332.987z M114.221,393.242c-12.461,0-22.6-10.183-22.6-22.698 c0-12.515,10.139-22.696,22.6-22.696c12.462,0,22.601,10.181,22.601,22.696C136.822,383.059,126.683,393.242,114.221,393.242z"></path><path d="M371.767,136.792c-25.91,0-48.951,12.536-63.424,31.871c-16.259-12.275-36.464-19.562-58.336-19.562 c-39.216,0-73.966,23.085-89.325,59.068c-3.452-2.02-7.051-3.734-10.754-5.158v-35.829c0-4.329-3.509-7.837-7.837-7.837 c-4.328,0-7.837,3.508-7.837,7.837v144.072c0,3.027,1.744,5.785,4.481,7.081c20.039,9.496,32.987,29.988,32.987,52.206 c0,17.333-7.662,33.591-21.02,44.609c-3.338,2.754-3.813,7.693-1.06,11.032c1.55,1.88,3.791,2.852,6.05,2.852 c1.755,0,3.521-0.587,4.982-1.791c13.2-10.887,21.998-25.805,25.274-42.254h25.12c4.328,0,7.837-3.508,7.837-7.837 s-3.509-7.837-7.837-7.837h-23.693c-0.441-26.081-14.885-50.138-37.447-62.827v-86.315c1.634,0.836,3.243,1.727,4.801,2.722 c3.306,2.112,7.524,2.634,11.208,1.434c3.779-1.227,6.78-4.05,8.233-7.747c12.377-31.473,42.145-51.809,75.838-51.809 c44.95,0,81.521,36.701,81.521,81.812c0,4.07-0.309,8.166-0.906,12.182H320c-4.328,0-7.837,3.508-7.837,7.837 s3.509,7.837,7.837,7.837l36.431-0.001c26.056,0,47.254,21.279,47.254,47.436s-21.199,47.437-47.256,47.437H241.37 c-4.328,0-7.837,3.508-7.837,7.837c0,4.329,3.509,7.837,7.837,7.837h115.06c34.699,0,62.929-28.312,62.929-63.111 c0-13.034-3.96-25.156-10.737-35.222c2.149-1.131,4.255-2.357,6.304-3.693c3.626-2.365,4.648-7.219,2.284-10.845 c-2.365-3.626-7.22-4.647-10.845-2.284c-2.714,1.769-5.544,3.313-8.466,4.634c-11.082-9.761-25.593-15.7-41.468-15.7l-9.983,0.001 c0.501-4.035,0.754-8.121,0.754-12.182c0-26.155-10.326-49.937-27.099-67.463c11.551-16.131,30.403-26.66,51.665-26.66 c35.065,0,63.591,28.626,63.591,63.814c0,12.269-3.476,24.182-10.051,34.45c-2.334,3.644-1.272,8.491,2.374,10.825 c3.647,2.334,8.492,1.272,10.825-2.375c8.194-12.795,12.525-27.63,12.525-42.901C451.033,172.45,415.475,136.792,371.767,136.792z"></path><path d="M246.596,194.874h-17.763c-4.328,0-7.837,3.508-7.837,7.837c0,4.329,3.509,7.837,7.837,7.837h17.763 c4.328,0,7.837-3.508,7.837-7.837C254.433,198.382,250.924,194.874,246.596,194.874z"></path><path d="M167.184,255.478c-4.328,0-7.837,3.508-7.837,7.837s3.509,7.837,7.837,7.837h21.943c4.328,0,7.837-3.508,7.837-7.837 s-3.509-7.837-7.837-7.837H167.184z"></path><path d="M212.637,305.111c0,4.329,3.509,7.837,7.837,7.837h19.853c4.328,0,7.837-3.508,7.837-7.837c0-4.329-3.509-7.837-7.837-7.837 h-19.853C216.145,297.274,212.637,300.782,212.637,305.111z"></path><path d="M277.943,236.67H260.18c-4.328,0-7.837,3.508-7.837,7.837c0,4.329,3.509,7.837,7.837,7.837h17.763 c4.328,0,7.837-3.508,7.837-7.837C285.78,240.178,282.271,236.67,277.943,236.67z"></path><path d="M339.592,311.903c4.328,0,7.837-3.508,7.837-7.837c0-4.329-3.509-7.837-7.837-7.837H320c-4.328,0-7.837,3.508-7.837,7.837 c0,4.329,3.509,7.837,7.837,7.837H339.592z"></path><path d="M275.331,342.727c0,4.329,3.509,7.837,7.837,7.837h19.853c4.328,0,7.837-3.508,7.837-7.837c0-4.329-3.509-7.837-7.837-7.837 h-19.853C278.839,334.89,275.331,338.398,275.331,342.727z"></path></svg>